<svg width="55" height="55" viewBox="0 0 55 55" fill="none" xmlns="http://www.w3.org/2000/svg">
    <path fill-rule="evenodd" clip-rule="evenodd"
        d="M6 13.8313C2.68629 13.8313 0 16.5176 0 19.8313V48.5119C0 51.8256 2.68629 54.5119 6 54.5119H45.7457C49.0594 54.5119 51.7457 51.8256 51.7457 48.5119V42.7958H34.3134C30.9997 42.7958 28.3134 40.1095 28.3134 36.7958V31.2218C28.3134 27.9081 30.9997 25.2218 34.3134 25.2218H51.7457V19.8313C51.7457 16.5176 49.0594 13.8313 45.7457 13.8313H6Z"
        fill="#65451F" />
    <path
        d="M27.2837 3.00024C30.0611 1.63164 33.419 2.85841 34.6601 5.69515V5.69515L12.8553 11.5532H9.92627L27.2837 3.00024Z"
        fill="#65451F" />
    <path d="M37.399 6.8979C40.9348 5.95983 44.5691 8.03243 45.5622 11.5532V11.5532H22.7811H19.8521L37.399 6.8979Z"
        fill="#65451F" />
    <path fill-rule="evenodd" clip-rule="evenodd"
        d="M34.5913 27.5C32.3822 27.5 30.5913 29.2909 30.5913 31.5V36.5178C30.5913 38.7269 32.3822 40.5178 34.5913 40.5178H50.9997C53.2088 40.5178 54.9997 38.7269 54.9997 36.5178V31.5C54.9997 29.2909 53.2088 27.5 50.9997 27.5H34.5913ZM37.7519 32.0563C36.6735 32.0563 35.7993 32.9305 35.7993 34.009C35.7993 35.0874 36.6735 35.9616 37.7519 35.9616C38.8304 35.9616 39.7046 35.0874 39.7046 34.009C39.7046 32.9305 38.8304 32.0563 37.7519 32.0563Z"
        fill="#65451F" />
</svg>